<svg xmlns="http://www.w3.org/2000/svg" viewBox="0 0 225 202.97"><defs><style>.cls-1{fill:#16213a;}.cls-2{fill:#fff;}.cls-3{fill:#d7e2e6;}</style></defs><g id="Layer_2" data-name="Layer 2"><g id="Layer_1-2" data-name="Layer 1"><path class="cls-1" d="M224.24,148c.25-1.68.51-3.35.76-5v-9c-.25-1.68-.51-3.35-.76-5C220.67,110.16,210.19,96.2,194.4,86c-1.55-1-2.78-1.8-3.09-4C185.7,40.29,161.86,13.31,122,3.24,81.13-7.06,37.52,7.74,14.61,39.62A81.37,81.37,0,0,0,.8,72.9c-.27,2-.53,4-.8,6v11l.72,5A74.48,74.48,0,0,0,12,125.4c1.64,2.47,1.5,4.16.12,6.56C8,139.21,4,146.6,0,153.93v7c6.9,9.42,11.28,10.85,21.52,4.21,12.31-8,23.69-12,37.63-2.91,7.52,4.89,18,3.65,26.26,6.83s11.64,13.37,19.31,18.55c27,18.3,55.2,20.11,84.43,6.14,3.14-1.51,5.28-1.6,8.1.13,3.67,2.25,7.73,3.87,11.33,6.21,6.64,4.32,12,3.32,16.42-3.16v-6c-3.2-5.67-6.35-11.37-9.63-17-1-1.76-.42-2.95.54-4.46A61.08,61.08,0,0,0,224.24,148ZM46.37,143.83c-3.1-1.88-5.4-2-8.53-.14-7.6,4.43-15.43,8.47-23.18,12.62a16.25,16.25,0,0,1-2.61.85,12,12,0,0,1,.71-2.67q6.42-12.08,13-24.1c.94-1.72,1.37-3-.07-4.85C-6.2,85.18,16,28.11,72.2,14.35c36-8.81,68-.23,92.94,28.58,10.22,11.82,15.17,26,15.13,41.77-.21,32.44-25.17,61.44-60.53,70.11C93.82,161.16,69.25,157.75,46.37,143.83Zm160.08,37.22c1.39,1.76,2.08,4.07,3.09,6.12-2.17-1-4.54-1.66-6.47-3-6.47-4.49-12.16-5.47-19.52-.46-9.37,6.38-20.74,7.68-32.14,8-17.86-.55-33.78-6.15-46.65-19.14a25.4,25.4,0,0,1-2.3-3.1,33.91,33.91,0,0,1,3.65-.87c30.06-3.52,55-16.05,72.43-41.52A74.28,74.28,0,0,0,190,100.21c.6-2.88,1.21-2.71,3.35-1.24,20.22,14,26.92,42.9,13.5,63.34C202.17,169.35,201.36,174.6,206.45,181.05Z"/><path class="cls-2" d="M165.14,42.93C140.24,14.12,108.23,5.54,72.2,14.35,16,28.11-6.2,85.18,25.67,125.54c1.44,1.83,1,3.13.07,4.85q-6.58,12-13,24.1a12,12,0,0,0-.71,2.67,16.25,16.25,0,0,0,2.61-.85c7.75-4.15,15.58-8.19,23.18-12.62,3.13-1.82,5.43-1.74,8.53.14,22.88,13.92,47.45,17.33,73.37,11,35.36-8.67,60.32-37.67,60.53-70.11C180.31,68.93,175.36,54.75,165.14,42.93Zm-108.9,58.3a16.74,16.74,0,1,1,.43-33.47,16.61,16.61,0,0,1,16.46,17A16.42,16.42,0,0,1,56.24,101.23Zm39.82,0c-9.53.08-17-7-17.14-16.29a16.88,16.88,0,1,1,17.14,16.29Zm38.88,0a16.57,16.57,0,0,1-16.58-16.86,16.86,16.86,0,1,1,33.72.57C151.89,94.25,144.47,101.31,134.94,101.23Z"/><path class="cls-3" d="M0,72.93a1.45,1.45,0,0,1,.8,0c-.27,2-.53,4-.8,6Z"/><path class="cls-3" d="M.72,95l-.37.11L0,94.93v-5Z"/><path class="cls-3" d="M224.24,128.9a.92.92,0,0,1,.76,0v5Z"/><path class="cls-3" d="M225,147.93l-.38.11-.38-.08c.25-1.67.51-3.35.76-5Z"/><path class="cls-3" d="M151.41,191.74c-17.86-.56-33.78-6.15-46.65-19.15a26.08,26.08,0,0,1-2.3-3.09,29.74,29.74,0,0,1,3.65-.87c30.06-3.53,55-16.06,72.43-41.53A74.23,74.23,0,0,0,190,100.22c.6-2.88,1.21-2.72,3.35-1.24,20.22,14,26.92,42.9,13.5,63.33-4.63,7.05-5.44,12.29-.35,18.74,1.39,1.76,2.08,4.07,3.09,6.13-2.17-1-4.54-1.67-6.47-3-6.47-4.49-12.16-5.47-19.52-.46C174.18,190.09,162.81,191.39,151.41,191.74Z"/><path class="cls-1" d="M135.26,67.75a16.77,16.77,0,0,0-16.9,16.62,16.57,16.57,0,0,0,16.58,16.86c9.53.08,16.95-7,17.14-16.29A16.8,16.8,0,0,0,135.26,67.75Zm0,22.1c-3.39,0-5.29-2-5.31-5.33s2.06-5.07,5.29-5.45c3.33.37,5.44,2.22,5.41,5.46A5,5,0,0,1,135.24,89.85Z"/><path class="cls-1" d="M95.74,67.75A16.75,16.75,0,0,0,78.92,84.94c.17,9.3,7.61,16.37,17.14,16.29a16.6,16.6,0,0,0,16.61-16.85A16.82,16.82,0,0,0,95.74,67.75Zm-.12,22.1a5,5,0,0,1-5.25-5.45c.06-3.24,2.21-5,5.56-5.29,3.24.43,5.24,2.2,5.14,5.56S99,89.93,95.62,89.85Z"/><path class="cls-1" d="M56.67,67.76a16.74,16.74,0,1,0-.43,33.47A16.42,16.42,0,0,0,73.13,84.76,16.61,16.61,0,0,0,56.67,67.76Zm-.46,22.11c-3.41-.08-5-2.22-5.24-5.4.31-3.47,2.24-5.33,5.53-5.27a4.92,4.92,0,0,1,5.2,5.47C61.59,87.88,59.6,90,56.21,89.87Z"/><path class="cls-3" d="M135.22,79.08c3.33.37,5.44,2.21,5.41,5.45a5,5,0,0,1-5.39,5.33c-3.39,0-5.29-2-5.31-5.34S132,79.46,135.22,79.08Z"/><path class="cls-3" d="M95.93,79.11c3.24.43,5.24,2.2,5.14,5.56S99,89.93,95.62,89.86a5,5,0,0,1-5.25-5.45C90.43,81.17,92.58,79.37,95.93,79.11Z"/><path class="cls-3" d="M51,84.48c.31-3.48,2.24-5.34,5.53-5.28a4.92,4.92,0,0,1,5.2,5.47c-.11,3.21-2.1,5.29-5.49,5.21S51.23,87.65,51,84.48Z"/></g></g></svg>