<svg xmlns="http://www.w3.org/2000/svg" viewBox="0 0 154.93 153.38"><defs><style>.cls-1{fill:#5c82cc;}.cls-2{fill:#fe4155;}.cls-3{fill:#b6b6b6;}.cls-4{fill:#fff;}</style></defs><g id="Layer_2" data-name="Layer 2"><g id="Layer_1-2" data-name="Layer 1"><path class="cls-1" d="M154.87,18.46a8.37,8.37,0,0,0-8.65-8.6c-2.87,0-5.74-.06-8.61,0-1,0-1.29-.31-1.24-1.28.07-1.56,0-3.12,0-4.68A3.78,3.78,0,0,0,132.45,0c-1,0-2,0-3,0a3.84,3.84,0,0,0-4.14,4.09c0,1.6,0,3.21,0,4.81,0,.7-.19.95-.93.95q-6.57,0-13.16,0c-.67,0-.87-.24-.86-.89,0-1.72,0-3.45,0-5.18A3.7,3.7,0,0,0,106.7,0c-1.1,0-2.2,0-3.29,0a3.87,3.87,0,0,0-4.16,4.21c0,1.56,0,3.12,0,4.68,0,.69-.18,1-.92,1q-6.84,0-13.67,0c-.82,0-1-.31-1-1,0-1.64.06-3.29,0-4.93a3.82,3.82,0,0,0-4-3.88c-1,0-2.11,0-3.16,0a3.8,3.8,0,0,0-4,4c0,1.6,0,3.21,0,4.81,0,.84-.25,1.07-1.08,1.06-4.63,0-9.27,0-13.91,0-.92,0-1.17-.32-1.15-1.16,0-1.73.08-3.46,0-5.18A3.64,3.64,0,0,0,52.81,0Q51,0,49.15,0a3.69,3.69,0,0,0-3.68,3.6c-.07,1.73-.09,3.46-.07,5.19,0,.72-.15,1.06-1,1q-7,0-13.92,0c-.74,0-.94-.25-.92-.95,0-1.69,0-3.38,0-5.06A3.77,3.77,0,0,0,25.73,0c-1.05,0-2.11,0-3.16,0a3.86,3.86,0,0,0-4.09,4.15c0,1.51-.05,3,0,4.55,0,.86-.19,1.19-1.11,1.15-1.64-.07-3.29,0-4.94,0a39,39,0,0,0-5.3.11C2.91,10.6.05,14.18,0,18.67Q0,33.85,0,49c0,.33,0,.67.08,1l8.43.06c.84,0,1.68,0,2.53,0H144.75c.5,0,1,0,1.51.06l8.56,0c0-.3.06-.59.06-.88Q154.88,33.84,154.87,18.46ZM33.53,30.66a9.68,9.68,0,0,1-18.81.7c-1.1-3.85.48-8.41,3.58-10.27.32.3.16.7.16,1.05,0,2.61,0,5.23,0,7.84a3.84,3.84,0,0,0,4.16,4.19h3a3.75,3.75,0,0,0,3.92-3.89c0-2.66,0-5.31,0-8V21C32.55,22.55,34.32,27,33.53,30.66Zm26.69.88a9.66,9.66,0,0,1-18.76-1.07c-.67-3.8,1.13-8.17,4-9.42v8.6c0,3.16,1.36,4.52,4.54,4.52h2.66a3.68,3.68,0,0,0,3.83-3.83c0-3.07,0-6.14,0-9.4C59.86,22.92,61.42,27.54,60.22,31.54ZM87.6,31a9.68,9.68,0,0,1-9.14,7.39,9.8,9.8,0,0,1-9.57-7c-1.07-3.92.49-8.44,3.7-10.32,0,2.84.13,5.61,0,8.36-.19,3.17,1.75,5.09,4.84,4.78a19.44,19.44,0,0,1,2,0c2.77,0,4.28-1.51,4.29-4.32s0-5.82,0-8.87C86.87,22.68,88.54,27.15,87.6,31Zm26.71-.39a9.66,9.66,0,0,1-18.74.86A9.39,9.39,0,0,1,99.25,21c0,3,0,5.72,0,8.5,0,3.33,1.36,4.7,4.66,4.7.89,0,1.78,0,2.66,0a3.68,3.68,0,0,0,3.77-3.76c0-2.7,0-5.4,0-8.1a2.22,2.22,0,0,1,.11-1.22C113.31,22.49,115.07,26.86,114.31,30.63Zm25.85.71a9.67,9.67,0,0,1-18.5.42A9.47,9.47,0,0,1,125,21.06c.41.2.22.59.22.89,0,2.7,0,5.39,0,8.09a3.82,3.82,0,0,0,4.09,4.13c1,0,2.11,0,3.16,0a3.73,3.73,0,0,0,3.85-3.84c0-3.07,0-6.14,0-9.39A9.49,9.49,0,0,1,140.16,31.34Z"/><path class="cls-1" d="M154.93,144a9.24,9.24,0,0,1-9.43,9.43q-68-.07-136,0c-5.79,0-9.5-3.69-9.5-9.46Q0,97.78,0,51.67c0-.54.07-1.08.11-1.63l8.43.06c0,.38,0,.76,0,1.13v91.6c0,2.76.67,3.43,3.41,3.43H143c2.38,0,3.21-.82,3.21-3.16q0-12.09,0-24.17,0-34.41,0-68.82l8.56,0c0,.46.05.92.05,1.39C154.87,82.3,154.81,113.13,154.93,144Z"/><path class="cls-2" d="M47.6,97c0,.69-.17,1-.92,1q-12,0-23.91,0c-.66,0-.93-.21-.86-.86a.76.76,0,0,0,0-.26c-.53-3.1.56-5.36,3.07-7.35a56.47,56.47,0,0,0,8.38-8.41,13.75,13.75,0,0,0,3.18-5.68c.42-1.94.27-3.83-1.42-5.2a4.9,4.9,0,0,0-5.59.07,14.18,14.18,0,0,0-1.71,1.29c-1.3,1.12-1.29,1.13-2.47,0s-2.26-2.28-3.4-3.4c-.33-.33-.52-.56-.11-1A15.39,15.39,0,0,1,40.3,63.48c5.28,2.82,7.1,9.4,4.34,15.29a40.17,40.17,0,0,1-7.19,9.88c-.47.51-1,1-1.66,1.75a74.74,74.74,0,0,1,10.51-.53c1.09,0,1.35.34,1.31,1.35C47.53,93.16,47.56,95.1,47.6,97Z"/><path class="cls-3" d="M64.25,99.05a4.94,4.94,0,1,1-9.88-.13,4.72,4.72,0,0,1,5.05-4.8A4.86,4.86,0,0,1,64.25,99.05Z"/><path class="cls-3" d="M118.35,115.07a5,5,0,0,1-10,0,5,5,0,0,1,10,0Z"/><path class="cls-3" d="M64.25,65.17a5,5,0,0,1-5,4.93,4.92,4.92,0,0,1-4.84-4.94,4.74,4.74,0,0,1,4.9-4.94A4.93,4.93,0,0,1,64.25,65.17Z"/><path class="cls-3" d="M136.63,65.25a4.94,4.94,0,0,1-9.87-.15,4.77,4.77,0,0,1,5-4.88A4.91,4.91,0,0,1,136.63,65.25Z"/><path class="cls-3" d="M136.63,115.07a4.92,4.92,0,0,1-5,4.91,4.8,4.8,0,0,1-4.86-5,4.94,4.94,0,0,1,9.87.1Z"/><path class="cls-3" d="M82.46,65.2a5,5,0,0,1-5.06,4.9,4.92,4.92,0,0,1-4.82-5,4.74,4.74,0,0,1,4.92-4.92A5,5,0,0,1,82.46,65.2Z"/><path class="cls-3" d="M136.63,83.41a4.89,4.89,0,0,1-5,4.94,4.77,4.77,0,0,1-4.91-4.81,4.94,4.94,0,1,1,9.87-.13Z"/><path class="cls-3" d="M82.46,83.44a4.92,4.92,0,0,1-5,4.91,4.7,4.7,0,0,1-4.87-5,4.93,4.93,0,0,1,4.87-4.91A5.05,5.05,0,0,1,82.46,83.44Z"/><path class="cls-3" d="M46.27,115a4.93,4.93,0,0,1-4.94,5A4.78,4.78,0,0,1,36.4,115a4.88,4.88,0,0,1,5-4.93A5,5,0,0,1,46.27,115Z"/><path class="cls-3" d="M82.46,115.07a5,5,0,0,1-5,4.91,4.74,4.74,0,0,1-4.85-5,4.85,4.85,0,0,1,4.88-4.87A5,5,0,0,1,82.46,115.07Z"/><path class="cls-3" d="M64.25,131.09a5.15,5.15,0,0,1-4.85,5,5,5,0,1,1,0-10A5.15,5.15,0,0,1,64.25,131.09Z"/><path class="cls-3" d="M82.46,131.08a5.2,5.2,0,0,1-5,5,5,5,0,0,1,0-10A5.21,5.21,0,0,1,82.46,131.08Z"/><path class="cls-3" d="M64.25,83.5a4.92,4.92,0,0,1-4.92,4.85,4.75,4.75,0,0,1-5-4.9,4.94,4.94,0,1,1,9.88,0Z"/><path class="cls-3" d="M82.46,99.05a5.17,5.17,0,0,1-4.91,5,4.93,4.93,0,0,1-5-5.08,4.69,4.69,0,0,1,5-4.79A4.91,4.91,0,0,1,82.46,99.05Z"/><path class="cls-3" d="M28.34,115.11A4.77,4.77,0,0,1,23.48,120a4.94,4.94,0,0,1-5-4.91,5,5,0,0,1,5-5A4.91,4.91,0,0,1,28.34,115.11Z"/><path class="cls-3" d="M64.25,115a4.92,4.92,0,0,1-5.09,5,4.83,4.83,0,0,1-4.78-5,4.89,4.89,0,0,1,5-4.91A5,5,0,0,1,64.25,115Z"/><path class="cls-3" d="M28.34,131.18a4.93,4.93,0,0,1-4.88,4.93,5.17,5.17,0,0,1-5-5,5.09,5.09,0,0,1,5-5A4.86,4.86,0,0,1,28.34,131.18Z"/><path class="cls-3" d="M100.16,65.05a5,5,0,0,1-5,5A4.93,4.93,0,0,1,90.29,65a4.71,4.71,0,0,1,4.89-4.81A5,5,0,0,1,100.16,65.05Z"/><path class="cls-3" d="M118.36,83.5a5,5,0,0,1-10,.07,5,5,0,1,1,10-.07Z"/><path class="cls-3" d="M136.63,99.09a5,5,0,0,1-4.92,4.91,5,5,0,0,1-5-5.11,4.73,4.73,0,0,1,5.07-4.76A4.88,4.88,0,0,1,136.63,99.09Z"/><path class="cls-3" d="M118.35,65.19a5,5,0,0,1-10,0,5,5,0,0,1,10,0Z"/><path class="cls-3" d="M100.17,99a5.14,5.14,0,0,1-5,5,5,5,0,0,1-4.89-5,4.68,4.68,0,0,1,4.95-4.85A4.92,4.92,0,0,1,100.17,99Z"/><path class="cls-3" d="M100.16,115.1a4.94,4.94,0,0,1-5,4.88,4.73,4.73,0,0,1-4.82-5,4.87,4.87,0,0,1,5-4.85A5,5,0,0,1,100.16,115.1Z"/><path class="cls-3" d="M100.16,83.49a5,5,0,0,1-4.94,4.86,4.72,4.72,0,0,1-4.93-4.89,4.92,4.92,0,0,1,4.9-5A5.15,5.15,0,0,1,100.16,83.49Z"/><path class="cls-3" d="M118.32,99.1a5.06,5.06,0,0,1-5,4.89,5.17,5.17,0,0,1-5-5,5,5,0,0,1,4.93-4.9A4.88,4.88,0,0,1,118.32,99.1Z"/><path class="cls-4" d="M144.75,50.05H11.08c-.85,0-1.69,0-2.53,0,0,.38,0,.76,0,1.13v91.6c0,2.76.67,3.43,3.41,3.43H143c2.38,0,3.21-.82,3.21-3.16q0-12.09,0-24.17,0-34.41,0-68.82C145.76,50.09,145.25,50.05,144.75,50.05ZM113.37,60.22a5,5,0,0,1,5,5,5,5,0,0,1-10,0A5,5,0,0,1,113.37,60.22Zm-18.19,0a5,5,0,0,1,5,4.83,5,5,0,0,1-5,5A4.93,4.93,0,0,1,90.29,65,4.71,4.71,0,0,1,95.18,60.22Zm0,18.25a5.15,5.15,0,0,1,5,5,5,5,0,0,1-4.94,4.86,4.72,4.72,0,0,1-4.93-4.89A4.92,4.92,0,0,1,95.19,78.47ZM23.45,110.11a4.91,4.91,0,0,1,4.89,5A4.77,4.77,0,0,1,23.48,120a4.94,4.94,0,0,1-5-4.91A5,5,0,0,1,23.45,110.11Zm4.89,21.07a4.93,4.93,0,0,1-4.88,4.93,5.17,5.17,0,0,1-5-5,5.09,5.09,0,0,1,5-5A4.86,4.86,0,0,1,28.34,131.18Zm13,4.78a4.86,4.86,0,1,1-.1-9.71,4.81,4.81,0,0,1,5,4.87A4.76,4.76,0,0,1,41.37,136ZM36.4,115a4.88,4.88,0,0,1,5-4.93,4.94,4.94,0,0,1,0,9.87A4.78,4.78,0,0,1,36.4,115ZM47.6,97c0,.69-.17,1-.92,1q-12,0-23.91,0c-.66,0-.93-.21-.86-.86a.76.76,0,0,0,0-.26c-.53-3.1.56-5.36,3.07-7.35a56.47,56.47,0,0,0,8.38-8.41,13.75,13.75,0,0,0,3.18-5.68c.42-1.94.27-3.83-1.42-5.2a4.9,4.9,0,0,0-5.59.07,14.18,14.18,0,0,0-1.71,1.29c-1.3,1.12-1.29,1.13-2.47,0s-2.26-2.28-3.4-3.4c-.33-.33-.52-.56-.11-1A15.39,15.39,0,0,1,40.3,63.48c5.28,2.82,7.1,9.4,4.34,15.29a40.17,40.17,0,0,1-7.19,9.88c-.47.51-1,1-1.66,1.75a74.74,74.74,0,0,1,10.51-.53c1.09,0,1.35.34,1.31,1.35C47.53,93.16,47.56,95.1,47.6,97Zm11.8,39.07a5,5,0,1,1,0-10,5,5,0,0,1,0,10ZM59.16,120a4.83,4.83,0,0,1-4.78-5,4.89,4.89,0,0,1,5-4.91,4.94,4.94,0,1,1-.21,9.87Zm.08-16a5,5,0,0,1-4.87-5.08,4.72,4.72,0,0,1,5.05-4.8,4.86,4.86,0,0,1,4.83,4.93A5,5,0,0,1,59.24,104Zm.09-15.65a4.75,4.75,0,0,1-5-4.9,4.94,4.94,0,1,1,5,4.9ZM59.22,70.1a4.92,4.92,0,0,1-4.84-4.94,4.74,4.74,0,0,1,4.9-4.94,4.93,4.93,0,0,1,5,5A5,5,0,0,1,59.22,70.1Zm18.25,66a5,5,0,0,1,0-10,5,5,0,1,1,0,10Zm0-16.14a4.74,4.74,0,0,1-4.85-5,4.85,4.85,0,0,1,4.88-4.87,5,5,0,0,1,5,5A5,5,0,0,1,77.43,120Zm.12-16a4.93,4.93,0,0,1-5-5.08,4.69,4.69,0,0,1,5-4.79,4.91,4.91,0,0,1,4.86,4.92A5.17,5.17,0,0,1,77.55,104Zm-.1-15.65a4.7,4.7,0,0,1-4.87-5,4.93,4.93,0,0,1,4.87-4.91,5.05,5.05,0,0,1,5,5A4.92,4.92,0,0,1,77.45,88.35Zm0-18.25a4.92,4.92,0,0,1-4.82-5,4.74,4.74,0,0,1,4.92-4.92,5,5,0,0,1,5,5A5,5,0,0,1,77.4,70.1ZM95.11,120a4.73,4.73,0,0,1-4.82-5,4.87,4.87,0,0,1,5-4.85,5,5,0,0,1,4.84,5A4.94,4.94,0,0,1,95.11,120Zm.07-16a5,5,0,0,1-4.89-5,4.68,4.68,0,0,1,4.95-4.85A4.92,4.92,0,0,1,100.17,99,5.14,5.14,0,0,1,95.18,104Zm18.24,16a5,5,0,0,1-5.09-4.89,5,5,0,0,1,10,0A5,5,0,0,1,113.42,120Zm-5.08-21a5,5,0,0,1,4.93-4.9,4.88,4.88,0,0,1,5,5,5.06,5.06,0,0,1-5,4.89A5.17,5.17,0,0,1,108.34,99Zm5-10.65a4.94,4.94,0,0,1-5-4.78,5,5,0,1,1,10-.07A5,5,0,0,1,113.38,88.35ZM131.62,120a4.8,4.8,0,0,1-4.86-5,4.94,4.94,0,1,1,4.86,5Zm.09-16a5,5,0,0,1-5-5.11,4.73,4.73,0,0,1,5.07-4.76,4.88,4.88,0,0,1,4.8,5A5,5,0,0,1,131.71,104Zm0-15.65a4.77,4.77,0,0,1-4.91-4.81,4.94,4.94,0,1,1,4.91,4.81Zm-.13-18.25a4.93,4.93,0,0,1-4.78-5,4.77,4.77,0,0,1,5-4.88,4.91,4.91,0,0,1,4.88,5A5,5,0,0,1,131.54,70.1Z"/><path class="cls-3" d="M46.28,131.12A4.76,4.76,0,0,1,41.37,136a4.86,4.86,0,1,1-.1-9.71A4.81,4.81,0,0,1,46.28,131.12Z"/></g></g></svg>