<svg xmlns="http://www.w3.org/2000/svg" viewBox="0 0 1287.69 603.2"><defs><style>.cls-1{fill:#d8d8d8;}.cls-2{fill:#ef3030;}.cls-3{fill:#fff;}.cls-4{fill:#211f44;}</style></defs><g id="Layer_2" data-name="Layer 2"><g id="Layer_1-2" data-name="Layer 1"><path class="cls-1" d="M646,433.6c-15.36,0-30.74.43-46.09-.08-37.5-1.27-75-2.94-112.21-8.06-16.62-2.29-33.21-4.53-49.43-8.92-6.66-1.8-13.19-4-18.71-8.3-3.72-2.92-4.48-5.92-.33-9.32,6.8-5.59,15.13-7.76,23.25-9.79,25.52-6.37,51.64-8.95,77.77-11.45,23.93-2.29,47.94-2.59,71.91-3.82,33.35-1.71,66.69-1.3,100-.61,41.73.87,83.45,3.48,124.8,9.66,16.14,2.41,32.37,5,47.64,11.27,4.47,1.85,10.05,3.46,10.07,9.16,0,5.37-5.3,7.09-9.58,8.91-17.51,7.44-36.21,9.92-54.77,12.55-27.36,3.88-54.94,5.89-82.52,7.49C700.51,433.87,673.23,433.91,646,433.6Z"/><path class="cls-2" d="M643.4,413.47H550.55c-17.89,0-31.15-8.05-40.13-23.3q-21.65-36.71-42.83-73.69c-17.09-29.84-35-59.25-51.27-89.53a40.33,40.33,0,0,1-.22-38.91c10.32-19.53,21.74-38.47,32.79-57.61,14.38-24.88,29.16-49.54,43.16-74.64,6.43-11.54,13.24-22.85,20-34.19C520.12,8,533,.55,548.37.41Q643-.43,737.56.37c15.75.12,29.1,7.26,37.36,21.3,16,27.2,31.55,54.68,47.36,82q21.22,36.67,42.61,73.25c5.29,9.11,10,18.27,10,29.32.06,11.51-4.29,21.26-9.91,30.85-13.69,23.36-27.19,46.83-40.76,70.27-12.16,21-24.22,42-36.48,62.93-5.61,9.58-9.91,20-17.55,28.29-8.41,9.08-18.67,14.85-31.47,14.86q-47.68,0-95.35,0ZM620.72,212.28c0-18.65-2.74-31.6-9.83-43.61-11.31-19.19-22.2-38.63-33.32-57.93-8.39-14.56-16.66-29.18-25.33-43.56-11.94-19.8-29.48-19.64-41.59.15-.7,1.13-1.4,2.26-2.06,3.42-19,32.83-38.39,65.42-56.72,98.6-13.68,24.76-13.76,50.66-.05,75.42,18.93,34.19,39,67.77,58.53,101.61a36.36,36.36,0,0,0,8.08,10.05c8.2,6.83,17.68,6.91,25.94.17a36.76,36.76,0,0,0,8.4-10.43c18.88-32.69,37.63-65.46,56.75-98C617,235.44,620.9,222,620.72,212.28Zm29,179.18v.26c18.81,0,37.62-.25,56.42.06,21.16.35,38.37-8.47,53.78-22,11.92-10.44,17.34-25.26,25.55-38.15,8.93-14,16.58-28.93,24.82-43.42C817.8,275,825.63,262,832.85,248.57c5.28-9.8,4.14-19.14-2.6-25.7-5.09-5-11.69-6.87-18.61-6.9-39.77-.14-79.55-.1-119.32-.15-10.46,0-20.27,2.75-29.74,6.93-18.25,8.07-31,21.65-40.49,39-11.09,20.3-23.17,40.06-34.55,60.2-7.42,13.1-16.16,25.54-21.9,39.49-6.36,15.45.61,29.14,18.17,29.79C605.75,392.07,627.74,391.46,649.7,391.46Zm99.82-193.62v-.2c21.79,0,43.59.31,65.37-.14,8.85-.19,16.34-3.93,19.79-13.14,3-8.14.39-15.48-3.53-22.32-18.8-32.85-37.88-65.54-56.75-98.35C758.56,36.15,734.6,22.49,703.11,22c-19.46-.32-38.92-.06-58.38-.05-18.63,0-37.27-.24-55.89.17-9.44.2-18.8,2-23.54,11.79-4,8.29-1.79,16.31,2.48,23.76,19.17,33.42,38.34,66.84,57.78,100.1,15.27,26.13,38.2,39.7,68.57,40.07C712.59,198,731.06,197.84,749.52,197.84Z"/><path class="cls-3" d="M620.72,212.28c.18,9.73-3.73,23.16-11.2,35.87-19.12,32.56-37.87,65.33-56.75,98a36.76,36.76,0,0,1-8.4,10.43c-8.26,6.74-17.74,6.66-25.94-.17a36.36,36.36,0,0,1-8.08-10.05c-19.56-33.84-39.6-67.42-58.53-101.61-13.71-24.76-13.63-50.66.05-75.42,18.33-33.18,37.76-65.77,56.72-98.6.66-1.16,1.36-2.29,2.06-3.42,12.11-19.79,29.65-19.95,41.59-.15,8.67,14.38,16.94,29,25.33,43.56,11.12,19.3,22,38.74,33.32,57.93C618,180.68,620.68,193.63,620.72,212.28Zm-55.29-.54c0-6.31-1.34-12.28-5.54-17.19-3.93-4.6-9.13-4.24-12.58.62-5.33,7.51-3.94,23.83,2.59,30.42,4.28,4.31,9.36,3.79,12.47-1.39A24,24,0,0,0,565.43,211.74Zm-33,52.73c0-6.46-1.76-12.53-4.83-16.45-4.6-5.87-10.28-5.5-13.93.89-4.43,7.76-3,22.18,2.81,28.79,4.29,4.87,9.8,4.39,13.09-1.26A22.67,22.67,0,0,0,532.39,264.47Zm-46.21-50.7c.06,6.29,1.27,12.27,5.59,17.12,4.08,4.58,9.1,4.13,12.49-.88,5.31-7.87,3.87-23.68-2.77-30.35-4.06-4.08-8.93-3.59-12.15,1.25C486.74,204.81,486.13,209.21,486.18,213.77Zm54.29-49.41c0-6-1.26-11.59-5.11-16.32-4.46-5.48-10.18-4.87-13.62,1.33-4.42,8-3,21.74,2.86,28.77,3.87,4.6,9,4.45,12.45-.49C539.84,173.68,540.54,169.1,540.47,164.36Z"/><path class="cls-3" d="M649.7,391.46c-22,0-44,.61-65.89-.19-17.56-.65-24.53-14.34-18.17-29.79,5.74-14,14.48-26.39,21.9-39.49,11.38-20.14,23.46-39.9,34.55-60.2,9.5-17.39,22.24-31,40.49-39,9.47-4.18,19.28-6.94,29.74-6.93,39.77.05,79.55,0,119.32.15,6.92,0,13.52,1.94,18.61,6.9,6.74,6.56,7.88,15.9,2.6,25.7C825.63,262,817.8,275,810.27,288.23c-8.24,14.49-15.89,29.37-24.82,43.42-8.21,12.89-13.63,27.71-25.55,38.15-15.41,13.51-32.62,22.33-53.78,22-18.8-.31-37.61-.06-56.42-.06Zm-7.1-34.41c8.8-1.65,17.21-5.62,22.08-14.92,3.77-7.21.29-12.91-7.89-12.35-10.32.7-18.16,5.92-22.86,15.15C630.53,351.6,634,356.74,642.6,357.05Zm109.26-66c8.47.09,20.65-8.09,23.7-15.91,2.3-5.92-1.19-11.1-7.68-11.38-8.37-.35-20.7,7.53-24,15.29C741,286,744.27,291,751.86,291ZM692,286c8.57-.88,16.43-5.85,21.26-15,3.32-6.27,0-11.58-7.19-11.5-10.2.1-18.13,4.85-23.38,13.55C678,280.74,681.18,285.93,692,286Zm-2.1,29.49c0,4.82,4.06,7.92,9.66,7.14,8.75-1.24,15.92-5.25,21.07-12.6,2.49-3.55,3.12-7.62,1.11-11.24-1.85-3.34-5.83-3.61-9.34-3.09a28,28,0,0,0-15.84,7.59C693.16,306.59,689.63,310,689.92,315.45Zm13.16,45.95c9.46.06,21-7.38,24.18-15.63,2.48-6.37-.54-11-7.28-11.2-9.58-.28-20.4,6.64-24.22,15.5C693,356.5,696.12,361.36,703.08,361.4Z"/><path class="cls-3" d="M749.52,197.84c-18.46,0-36.93.18-55.39,0-30.37-.37-53.3-13.94-68.57-40.07C606.12,124.47,587,91.05,567.78,57.63c-4.27-7.45-6.47-15.47-2.48-23.76C570,24,579.4,22.28,588.84,22.08c18.62-.41,37.26-.16,55.89-.17,19.46,0,38.92-.27,58.38.05,31.49.53,55.45,14.19,71.29,41.73,18.87,32.81,38,65.5,56.75,98.35,3.92,6.84,6.57,14.18,3.53,22.32-3.45,9.21-10.94,12.95-19.79,13.14-21.78.45-43.58.14-65.37.14Zm10.93-36.11c6.07.08,9.44-3.3,8.64-8.65-1.43-9.53-15.83-20.51-25.4-19.37-5.46.65-8.42,5.11-6.85,10.3C739.57,153,751.05,161.61,760.45,161.73ZM646.9,75.84c6.46,0,10-3.67,8.7-9-2.2-9.19-14.42-18.94-23.85-19-6.84-.06-10.08,4.22-8.13,10.74C626.2,67.18,637.87,75.86,646.9,75.84Zm24.42,41c6.29.09,10-4.33,8.33-9.89-2.76-9.19-13.91-17.79-23.49-18.14-7-.25-10.46,4.39-8.18,11C651,108.59,662.11,116.68,671.32,116.8Zm61.66-.94c6.85.11,10.39-3.82,8.77-9.73-2.42-8.82-14.61-18.18-23.85-18.3-6.07-.08-9.18,3.57-8.13,9.52C711.35,106.29,723.16,115.71,733,115.86ZM706.79,155c-.21-10.18-16.16-22.59-26.17-20.35-5.46,1.22-8,5.39-5.79,10.47,4.32,9.83,11.95,15.79,22.62,17.32C703.4,163.32,706.9,160.25,706.79,155Zm-13-107.64c-6.93-.11-9.8,3.52-8.07,10.16C688,66.29,700.93,75.76,710,75.28c5.89-.32,9.27-4.87,7.54-10.18C714.43,55.71,703.48,47.53,693.77,47.39Z"/><path class="cls-4" d="M565.43,211.75a24,24,0,0,1-3.06,12.45c-3.11,5.18-8.19,5.7-12.47,1.39-6.53-6.59-7.92-22.91-2.59-30.42,3.45-4.86,8.65-5.22,12.58-.62C564.09,199.46,565.41,205.43,565.43,211.75Z"/><path class="cls-4" d="M532.39,264.47a22.67,22.67,0,0,1-2.86,12c-3.29,5.65-8.8,6.13-13.09,1.26-5.84-6.61-7.24-21-2.81-28.79,3.65-6.39,9.33-6.76,13.93-.89C530.63,251.94,532.41,258,532.39,264.47Z"/><path class="cls-4" d="M486.18,213.77c-.05-4.56.56-9,3.16-12.86,3.22-4.84,8.09-5.33,12.15-1.25,6.64,6.67,8.08,22.48,2.77,30.35-3.39,5-8.41,5.46-12.49.88C487.45,226,486.24,220.06,486.18,213.77Z"/><path class="cls-4" d="M540.47,164.36c.07,4.74-.63,9.32-3.42,13.29-3.47,4.94-8.58,5.09-12.45.49-5.91-7-7.28-20.79-2.86-28.77,3.44-6.2,9.16-6.81,13.62-1.33C539.21,152.77,540.43,158.4,540.47,164.36Z"/><path class="cls-4" d="M642.6,357.05c-8.62-.31-12.07-5.45-8.67-12.12,4.7-9.23,12.54-14.45,22.86-15.15,8.18-.56,11.66,5.14,7.89,12.35C659.81,351.43,651.4,355.4,642.6,357.05Z"/><path class="cls-4" d="M751.86,291c-7.59-.08-10.86-5-7.93-12,3.25-7.76,15.58-15.64,24-15.29,6.49.28,10,5.46,7.68,11.38C772.51,283,760.33,291.13,751.86,291Z"/><path class="cls-4" d="M692,286c-10.84,0-14-5.22-9.31-12.95,5.25-8.7,13.18-13.45,23.38-13.55,7.19-.08,10.51,5.23,7.19,11.5C708.45,280.11,700.59,285.08,692,286Z"/><path class="cls-4" d="M689.92,315.45c-.29-5.43,3.24-8.86,6.66-12.2a28,28,0,0,1,15.84-7.59c3.51-.52,7.49-.25,9.34,3.09,2,3.62,1.38,7.69-1.11,11.24-5.15,7.35-12.32,11.36-21.07,12.6C694,323.37,690,320.27,689.92,315.45Z"/><path class="cls-4" d="M703.08,361.4c-7,0-10.1-4.9-7.32-11.33,3.82-8.86,14.64-15.78,24.22-15.5,6.74.19,9.76,4.83,7.28,11.2C724.05,354,712.54,361.46,703.08,361.4Z"/><path class="cls-4" d="M760.45,161.73c-9.4-.12-20.88-8.74-23.61-17.72-1.57-5.19,1.39-9.65,6.85-10.3,9.57-1.14,24,9.84,25.4,19.37C769.89,158.43,766.52,161.81,760.45,161.73Z"/><path class="cls-4" d="M646.9,75.84c-9,0-20.7-8.66-23.28-17.33-2-6.52,1.29-10.8,8.13-10.74,9.43.09,21.65,9.84,23.85,19C656.89,72.17,653.36,75.83,646.9,75.84Z"/><path class="cls-4" d="M671.32,116.8c-9.21-.12-20.3-8.21-23.34-17-2.28-6.62,1.17-11.26,8.18-11,9.58.35,20.73,9,23.49,18.14C681.33,112.47,677.61,116.89,671.32,116.8Z"/><path class="cls-4" d="M733,115.86c-9.82-.15-21.63-9.57-23.21-18.51-1-5.95,2.06-9.6,8.13-9.52,9.24.12,21.43,9.48,23.85,18.3C743.37,112,739.83,116,733,115.86Z"/><path class="cls-4" d="M706.79,155c.11,5.22-3.39,8.29-9.34,7.44-10.67-1.53-18.3-7.49-22.62-17.32-2.23-5.08.33-9.25,5.79-10.47C690.63,132.44,706.58,144.85,706.79,155Z"/><path class="cls-4" d="M693.77,47.39c9.71.14,20.66,8.32,23.72,17.71,1.73,5.31-1.65,9.86-7.54,10.18-9,.48-22-9-24.25-17.73C684,50.91,686.84,47.28,693.77,47.39Z"/><path class="cls-2" d="M52.78,525.65V603.2H38.72L10.48,538.81V598A5.06,5.06,0,0,1,9,601.67a5,5,0,0,1-3.71,1.53,5,5,0,0,1-3.71-1.53A5.06,5.06,0,0,1,0,598V520.28H13.85l28.32,64.26V525.65a5.45,5.45,0,0,1,5.37-5.37,5,5,0,0,1,3.71,1.56A5.24,5.24,0,0,1,52.78,525.65Z"/><path class="cls-2" d="M130,561.9V584q0,7.05-6.64,13t-13.69,6H97.33q-7.18,0-13.73-6.08t-6.55-13V561.9q0-6.87,6.39-12.95t13.89-6.08h12.29q7-.14,13.69,5.86T130,561.9Zm-42.29.43v21.21a5.57,5.57,0,0,0,2,4.56l3.93,3.37a5.5,5.5,0,0,0,3.69,1.12h12.16a7.17,7.17,0,0,0,4.87-1.93l3.18-2.81a5,5,0,0,0,1.93-4.18V562.46a5.48,5.48,0,0,0-1.93-4.62l-3.68-2.93a6.63,6.63,0,0,0-4.37-1.56H98.64A8.08,8.08,0,0,0,93.15,555l-3.56,3.06A5.25,5.25,0,0,0,87.66,562.33Z"/><path class="cls-2" d="M154.35,598V548.23a5.26,5.26,0,0,1,1.53-3.77,5,5,0,0,1,3.71-1.59,5,5,0,0,1,3.71,1.56,5.23,5.23,0,0,1,1.53,3.8v6.55l8.55-7.3q5.3-4.49,10.35-4.49h7.68a15.77,15.77,0,0,1,15.72,15.72v2.81a5.24,5.24,0,0,1-1.53,3.81,5.23,5.23,0,0,1-8.95-3.68v-2.94a5.22,5.22,0,0,0-5.24-5.24h-6.8q-2.19,0-4.87,2.31L164.83,568.7V598a5,5,0,0,1-1.56,3.71,5.23,5.23,0,0,1-8.92-3.71Z"/><path class="cls-2" d="M268.33,603.2H257.85a15.34,15.34,0,0,1-11.17-4.62A15,15,0,0,1,242,587.47v-34h-5.36a5.11,5.11,0,0,1-3.71-1.49,5.26,5.26,0,0,1,3.71-9h5.49V530.14a5.24,5.24,0,0,1,10.48,0V543H273.7a5.33,5.33,0,0,1,5.24,5.24,5,5,0,0,1-1.56,3.71,5.09,5.09,0,0,1-3.68,1.53H252.48v34a5,5,0,0,0,1.6,3.69,5.18,5.18,0,0,0,3.77,1.55h10.23c2.79,0,4.64-1.5,5.55-4.52s2.69-4.52,5.31-4.52a5,5,0,0,1,3.77,1.53,5.31,5.31,0,0,1,1.47,3.83q0,4.76-4.46,9.46A15,15,0,0,1,268.33,603.2Z"/><path class="cls-2" d="M308.57,598V525.52a4.89,4.89,0,0,1,1.53-3.62,5.14,5.14,0,0,1,3.71-1.49,5.22,5.22,0,0,1,5.24,5.24V552.1l8.42-5.49q5.75-3.61,10.24-3.62h6.48a15.12,15.12,0,0,1,11.05,4.59,15.78,15.78,0,0,1,4.8,11.13L361.35,598a4.81,4.81,0,0,1-1.5,3.71,5.14,5.14,0,0,1-3.74,1.53,4.85,4.85,0,0,1-3.68-1.59,5.43,5.43,0,0,1-1.56-3.65l-1.31-39.37a5.26,5.26,0,0,0-1.62-3.68,5.11,5.11,0,0,0-3.75-1.56h-5.86a8.11,8.11,0,0,0-4.37,1.56l-14.91,9.73V598a5.24,5.24,0,1,1-10.48,0Z"/><path class="cls-2" d="M433.54,603.2h-22.4A15.1,15.1,0,0,1,401,599.64l-10.17-8.86a13.54,13.54,0,0,1-4.86-11V566.14q-.25-6.67,5.49-11.61l9.17-7.92a14.73,14.73,0,0,1,9.48-3.62h23.52a5.28,5.28,0,0,1,3.71,9,5.12,5.12,0,0,1-3.71,1.49H411.14a6.09,6.09,0,0,0-4.06,1.69l-8.42,7.17A5.85,5.85,0,0,0,396.6,567V579.8a4.48,4.48,0,0,0,1.62,3.49l9.24,7.87a6.65,6.65,0,0,0,4.61,1.55h21.47a5.25,5.25,0,1,1,0,10.49Z"/><path class="cls-2" d="M515.82,561.9V584q0,7.05-6.64,13t-13.69,6H483.2q-7.18,0-13.73-6.08t-6.55-13V561.9q0-6.87,6.39-12.95t13.89-6.08h12.29q7-.14,13.69,5.86T515.82,561.9Zm-42.29.43v21.21a5.57,5.57,0,0,0,2.05,4.56l3.93,3.37a5.5,5.5,0,0,0,3.69,1.12h12.16a7.17,7.17,0,0,0,4.87-1.93l3.18-2.81a5,5,0,0,0,1.93-4.18V562.46a5.48,5.48,0,0,0-1.93-4.62l-3.68-2.93a6.63,6.63,0,0,0-4.37-1.56H484.51A8.08,8.08,0,0,0,479,555l-3.56,3.06A5.25,5.25,0,0,0,473.53,562.33Z"/><path class="cls-2" d="M582.39,550.29V525.52a5.11,5.11,0,0,1,1.5-3.71,4.87,4.87,0,0,1,3.62-1.53,5.26,5.26,0,0,1,3.77,1.53,5,5,0,0,1,1.59,3.71V598a5,5,0,0,1-1.56,3.71,5.21,5.21,0,0,1-8.92-3.71v-2.31q-7.67,7.54-14.35,7.55h-8.92q-5.37,0-10.73-4.62L544,594.9a14,14,0,0,1-2.84-4.81,17.13,17.13,0,0,1-1.34-6.3V562.46a16.69,16.69,0,0,1,1.5-6.9,13.93,13.93,0,0,1,3.49-5l4.31-3.68a16.09,16.09,0,0,1,10.86-4h7.54a16.74,16.74,0,0,1,11.23,4.36Zm-15.22,3.18h-7.3a6.07,6.07,0,0,0-4.18,1.69l-3.37,2.93a5.13,5.13,0,0,0-1.75,4v22.21a5.09,5.09,0,0,0,2.06,3.93l3.43,2.94a5.17,5.17,0,0,0,3.44,1.43H568a6.71,6.71,0,0,0,4-1.93l8.29-6.87a5.7,5.7,0,0,0,2.06-4.49V568q0-3.81-2.18-5.62l-8.55-7.3A6.34,6.34,0,0,0,567.17,553.47Z"/><path class="cls-2" d="M670.17,562.71v12.66a5.33,5.33,0,0,1-5.24,5.24H627.87v3.06a5.65,5.65,0,0,0,2.31,4.55l3.06,2.56a7.85,7.85,0,0,0,4.74,1.93h26.95a5.09,5.09,0,0,1,3.68,1.53,5.13,5.13,0,0,1,0,7.4,5.07,5.07,0,0,1-3.65,1.56H637.29a16.2,16.2,0,0,1-5.77-1.16,15.23,15.23,0,0,1-4.46-2.4l-4.68-4.12a13.4,13.4,0,0,1-3.65-4.86,13.75,13.75,0,0,1-1.46-5.74v-24a17.52,17.52,0,0,1,5.61-11l4.37-3.43a14.78,14.78,0,0,1,9.54-3.5h14.73q5.55,0,10.48,4.62l3.93,3.74Q670.18,555.16,670.17,562.71ZM628,561.9V570h31.82v-7.3a5.64,5.64,0,0,0-1.81-4.5L655,555.53a7,7,0,0,0-4.24-1.93H637.54a6.72,6.72,0,0,0-4.43,1.68l-3.05,2.56A4.84,4.84,0,0,0,628,561.9Z"/><path class="cls-2" d="M694.57,598V548.23a5.25,5.25,0,0,1,1.52-3.77,5.17,5.17,0,0,1,7.43,0,5.23,5.23,0,0,1,1.53,3.8v6.55l8.54-7.3Q718.9,543,724,543h7.67a15.77,15.77,0,0,1,15.73,15.72v2.81a5.24,5.24,0,0,1-1.53,3.81,5,5,0,0,1-3.71,1.56,5.22,5.22,0,0,1-5.25-5.24v-2.94a5.21,5.21,0,0,0-5.24-5.24h-6.8q-2.18,0-4.86,2.31L705.05,568.7V598a5,5,0,0,1-1.56,3.71,5.22,5.22,0,0,1-8.92-3.71Z"/><path class="cls-2" d="M786.4,543h24a15.78,15.78,0,0,1,9.92,3.34c2.87,2.22,4.3,4.4,4.3,6.52a4.73,4.73,0,0,1-1.59,3.68,5.11,5.11,0,0,1-3.52,1.43,6.09,6.09,0,0,1-4.56-2.24,5.87,5.87,0,0,0-4.3-2.25H787q-3.5,0-3.49,2.91a3.34,3.34,0,0,0,2.33,3.09l27.86,12.41a15.81,15.81,0,0,1,7,6,16.42,16.42,0,0,1,2.71,9.2,15.4,15.4,0,0,1-4.77,11.42,15.06,15.06,0,0,1-10.82,4.68H786.53a17.41,17.41,0,0,1-10.2-3.31c-3.15-2.2-4.72-4.35-4.72-6.43a5.12,5.12,0,0,1,1.53-3.65,5.25,5.25,0,0,1,4-1.59c1.34,0,2.76.75,4.28,2.25s3.71,2.24,6.58,2.24h19.53a5,5,0,0,0,3.87-1.77,6,6,0,0,0,1.56-4.09,5.3,5.3,0,0,0-3.5-5.12l-28.13-12.66a13.82,13.82,0,0,1-6.24-5.24,12.87,12.87,0,0,1-2.19-7,13.67,13.67,0,0,1,3.9-9.73A12.73,12.73,0,0,1,786.4,543Z"/><path class="cls-4" d="M956.47,520.28h17.41a5.25,5.25,0,0,1,3.58,9.08,5.19,5.19,0,0,1-3.59,1.53H957.25a5.21,5.21,0,0,0-4.25,2.28l-14.7,18.92a9.46,9.46,0,0,0-1.86,6.24v29a5.24,5.24,0,0,0,1.53,3.81,5,5,0,0,0,3.71,1.55H963a5.31,5.31,0,0,0,5.24-5.24V576.12H957.41a5.24,5.24,0,1,1,0-10.48h21.33v21.83A15.76,15.76,0,0,1,963,603.2H941.68a15.29,15.29,0,0,1-11.19-4.62,15.09,15.09,0,0,1-4.65-11.11v-29A20.76,20.76,0,0,1,930,545.3l15.47-19.65a13.38,13.38,0,0,1,4.71-3.81A13.53,13.53,0,0,1,956.47,520.28Z"/><path class="cls-4" d="M1018.88,565.39h20.56a23.11,23.11,0,0,1,4.87.75l-.12-7.43a5.22,5.22,0,0,0-5.25-5.24h-20a5.24,5.24,0,1,1,0-10.48h19.93a15.15,15.15,0,0,1,11.09,4.56,15.72,15.72,0,0,1,4.78,11.16L1056.1,598a5,5,0,0,1-1.56,3.71,5.07,5.07,0,0,1-3.68,1.53,5.23,5.23,0,0,1-3.8-1.53,5,5,0,0,1-1.56-3.71l-8.87,5.24h-17.75A15.79,15.79,0,0,1,1003,587.35v-6.11a15.89,15.89,0,0,1,15.87-15.85Zm26.21,20.4-.31-4.43a5.28,5.28,0,0,0-1.56-3.74,5,5,0,0,0-3.68-1.5h-20.68a5.22,5.22,0,0,0-5.24,5.24v5.86a5.33,5.33,0,0,0,5.24,5.25h14.8Z"/><path class="cls-4" d="M1079.13,598V548.23a5.21,5.21,0,0,1,5.24-5.24,4.84,4.84,0,0,1,5.11,4,13.86,13.86,0,0,1,9.72-4.11,12.45,12.45,0,0,1,10.34,5.36q5-5.36,11-5.36a11.74,11.74,0,0,1,8.44,3.46,12.62,12.62,0,0,1,3.83,8.83l1.5,42.8a5.33,5.33,0,0,1-5.24,5.24,5.11,5.11,0,0,1-3.75-1.56,5.26,5.26,0,0,1-1.62-3.68l-1.25-41.12c-.08-2.24-.77-3.37-2.06-3.37a3.49,3.49,0,0,0-2.18.94l-6.24,5.24V598a4.85,4.85,0,0,1-1.53,3.61,5.26,5.26,0,0,1-7.39,0,5,5,0,0,1-1.56-3.71V556.16c0-1.79-.77-2.69-2.3-2.69a3,3,0,0,0-2,.81l-7.51,6.37V598a5.14,5.14,0,0,1-1.5,3.68,4.84,4.84,0,0,1-3.62,1.56,5.19,5.19,0,0,1-3.77-1.56A5,5,0,0,1,1079.13,598Z"/><path class="cls-4" d="M1210.39,562.71v12.66a5.33,5.33,0,0,1-5.24,5.24h-37.06v3.06a5.65,5.65,0,0,0,2.31,4.55l3.06,2.56a7.85,7.85,0,0,0,4.74,1.93h27a5.09,5.09,0,0,1,3.68,1.53,5.13,5.13,0,0,1,0,7.4,5.07,5.07,0,0,1-3.65,1.56h-27.64a16.2,16.2,0,0,1-5.77-1.16,15.23,15.23,0,0,1-4.46-2.4l-4.68-4.12a13.29,13.29,0,0,1-3.65-4.86,13.62,13.62,0,0,1-1.47-5.74v-24a17.6,17.6,0,0,1,5.62-11l4.37-3.43A14.78,14.78,0,0,1,1177,543h14.73q5.55,0,10.48,4.62l3.93,3.74Q1210.4,555.16,1210.39,562.71Zm-42.17-.81V570H1200v-7.3a5.61,5.61,0,0,0-1.81-4.5l-3-2.68a7.07,7.07,0,0,0-4.25-1.93h-13.16a6.72,6.72,0,0,0-4.43,1.68l-3.06,2.56A4.86,4.86,0,0,0,1168.22,561.9Z"/><path class="cls-4" d="M1249.44,543h24a15.76,15.76,0,0,1,9.92,3.34c2.87,2.22,4.31,4.4,4.31,6.52a4.73,4.73,0,0,1-1.59,3.68,5.13,5.13,0,0,1-3.53,1.43,6.07,6.07,0,0,1-4.55-2.24,5.89,5.89,0,0,0-4.31-2.25H1250q-3.49,0-3.5,2.91a3.34,3.34,0,0,0,2.33,3.09l27.87,12.41a15.73,15.73,0,0,1,7,6,16.43,16.43,0,0,1,2.72,9.2,15.4,15.4,0,0,1-4.77,11.42,15.08,15.08,0,0,1-10.83,4.68h-21.21a17.43,17.43,0,0,1-10.2-3.31c-3.14-2.2-4.71-4.35-4.71-6.43a5.12,5.12,0,0,1,1.53-3.65,5.25,5.25,0,0,1,4-1.59q2,0,4.27,2.25c1.52,1.5,3.71,2.24,6.58,2.24h19.53a5,5,0,0,0,3.87-1.77,6,6,0,0,0,1.56-4.09,5.31,5.31,0,0,0-3.49-5.12l-28.14-12.66a13.87,13.87,0,0,1-6.24-5.24,12.86,12.86,0,0,1-2.18-7,13.67,13.67,0,0,1,3.9-9.73A12.71,12.71,0,0,1,1249.44,543Z"/></g></g></svg>