<svg xmlns="http://www.w3.org/2000/svg" viewBox="0 0 234.23 168.37"><defs><style>.cls-1{fill:#f2f2f2;}.cls-2{fill:#f4f5f5;}.cls-3{fill:#fff;}.cls-4{fill:#eaeaea;}.cls-5{fill:#444;}.cls-6{fill:#e02259;}.cls-7{fill:#d62254;}.cls-8{fill:#ed265c;}.cls-9{fill:#ef6289;}</style></defs><g id="Layer_2" data-name="Layer 2"><g id="Layer_1-2" data-name="Layer 1"><path class="cls-1" d="M234,68.79c-2.77,17.13-32.81,39-38.13,44.27-4.95,4.89-32,15.26-47,14.67,4.31-3.84,13-12.83,30.16-33.87l14.05-9.7Z"/><path class="cls-2" d="M234.21,65.68C224.92,70.19,198.86,79,198.86,79s-8.93,3.42-19.19-5c0,0-25-37.52-31.71-46.52-3.3-4.42-4.19-11.9-4.24-18.37,14.08-5.29,38.14-13.15,47-6.55C201.18,10.35,233.24,47.44,234.21,65.68Z"/><path class="cls-3" d="M176.33,92.63c-2.71,3.21-18.52,22-18.52,22a69.14,69.14,0,0,1-13.05,12.53c-13.42-3.24-27.27-16.73-43.4-57.45,0,0-5.26-11,8-28.73,6.23-8.3,11.51-16.63,17.23-22.4,5.1,1.07,14,3.89,19.83,11.06,8.45,10.47,29.41,42.09,30.79,45.58S179,89.41,176.33,92.63Z"/><path class="cls-3" d="M234.16,67.93c0,.29-.07.57-.12.86L193.11,84.16l-14.05,9.7c-17.14,21-25.85,30-30.16,33.87a20.35,20.35,0,0,1-4.05-.51l-.09,0a69.14,69.14,0,0,0,13.05-12.53s15.81-18.82,18.52-22,2.25-13.89.88-17.38-22.34-35.11-30.79-45.58c-5.79-7.17-14.73-10-19.83-11.06a26.74,26.74,0,0,1,9.08-6.42c1.88-.73,4.68-1.86,8.05-3.12.05,6.47.94,14,4.24,18.37,6.69,9,31.71,46.52,31.71,46.52,10.26,8.43,19.19,5,19.19,5s26.06-8.78,35.35-13.29A15.15,15.15,0,0,1,234.16,67.93Z"/><path class="cls-4" d="M234.16,67.93c0,.29-.07.57-.12.86L193.11,84.16l-14.05,9.7c-17.14,21-25.85,30-30.16,33.87a20.35,20.35,0,0,1-4.05-.51l-.09,0a69.14,69.14,0,0,0,13.05-12.53s15.81-18.82,18.52-22,2.25-13.89.88-17.38-22.34-35.11-30.79-45.58c-5.79-7.17-14.73-10-19.83-11.06a26.74,26.74,0,0,1,9.08-6.42c1.88-.73,4.68-1.86,8.05-3.12.05,6.47.94,14,4.24,18.37,6.69,9,31.71,46.52,31.71,46.52,10.26,8.43,19.19,5,19.19,5s26.06-8.78,35.35-13.29A15.15,15.15,0,0,1,234.16,67.93Z"/><path class="cls-5" d="M109,68c-2.12-4-2-7.65-.17-9.74s6.62-1.24,8,1c2.17,3.42,2.32,7.65.07,10.1S110.25,70.47,109,68Z"/><path class="cls-5" d="M128.15,44.9c-2.13-4-2-7.65-.17-9.74s6.61-1.24,8,1c2.17,3.42,2.31,7.65.06,10.1S129.44,47.35,128.15,44.9Z"/><path class="cls-5" d="M120.92,88.1c-2.13-4-2-7.66-.17-9.75s6.61-1.24,8.05,1c2.17,3.42,2.31,7.66.06,10.1S122.21,90.54,120.92,88.1Z"/><path class="cls-5" d="M140.12,65c-2.13-4-2-7.65-.17-9.74s6.61-1.24,8,1c2.18,3.42,2.32,7.65.07,10.1S141.41,67.42,140.12,65Z"/><path class="cls-5" d="M136.08,110.29c-2.13-4-2-7.65-.17-9.75s6.61-1.23,8.05,1c2.17,3.42,2.32,7.66.06,10.1S137.38,112.73,136.08,110.29Z"/><path class="cls-5" d="M155.28,87.17c-2.13-4-2-7.65-.17-9.75s6.61-1.24,8,1c2.18,3.42,2.32,7.66.07,10.1S156.57,89.61,155.28,87.17Z"/><path class="cls-5" d="M186,102.18c5.2-4.66,8.17-6.78,11.48-5.09s-1,6.88-2.12,7.91-5.68,4.47-9,3.36S184.26,103.7,186,102.18Z"/><path class="cls-5" d="M184.4,30.19c8.94-2.77,14.6,9.85,8.68,11.66C184.16,44.59,176.48,32.63,184.4,30.19Z"/><path class="cls-5" d="M185.33,55c8.95-2.76,14.6,9.85,8.68,11.67C185.09,69.4,177.41,57.44,185.33,55Z"/><path class="cls-5" d="M184.4,9.46c8.94-2.77,14.6,9.85,8.68,11.67C184.16,23.86,176.48,11.91,184.4,9.46Z"/><path class="cls-6" d="M132.58,118.13c-13.1-1.58-36.05-17-42.19-20.86-7.67-4.74-10.17-9.36-12.69-16s-12.2-33.59-14.18-41a10.39,10.39,0,0,1,.8-7.29c18.62,1.84,48.61,27.4,52.85,35.11C121.12,75.36,131.93,102.68,132.58,118.13Z"/><path class="cls-7" d="M129.65,128.93c-9.69,13-45.57,39.41-56.1,39.44-9.48,0-35.53-15.55-48.79-25.64,6.22-10.17,20.4-19.39,20.4-19.39,34-24.64,31.17-26.64,62-11.8C121.18,118.28,127.22,124.34,129.65,128.93Z"/><path class="cls-8" d="M131.6,125.77a17.23,17.23,0,0,1-1.95,3.16c-2.43-4.59-8.47-10.65-22.49-17.39-30.83-14.84-28-12.84-62,11.8,0,0-14.18,9.22-20.4,19.39a57.55,57.55,0,0,1-6.36-5.4,19.88,19.88,0,0,1-2.35-3.08c-7.57-11.67-14.32-37-16-52.34A13.11,13.11,0,0,1,4,71.24C8.3,66.88,33.58,43.94,51.56,36a62.83,62.83,0,0,1,6.31-2.45A15.77,15.77,0,0,1,64.32,33a10.39,10.39,0,0,0-.8,7.29c2,7.43,11.67,34.44,14.18,41s5,11.21,12.69,16c6.14,3.82,29.09,19.28,42.19,20.86A17.69,17.69,0,0,1,131.6,125.77Z"/><path class="cls-9" d="M131.6,125.77a17.23,17.23,0,0,1-1.95,3.16c-2.43-4.59-8.47-10.65-22.49-17.39-30.83-14.84-28-12.84-62,11.8,0,0-14.18,9.22-20.4,19.39a57.55,57.55,0,0,1-6.36-5.4,19.88,19.88,0,0,1-2.35-3.08,12.69,12.69,0,0,0,10.58-1.78c7.59-5,44.75-31.24,45.7-33.35s2.6-7.79,1.88-15.48S61.45,45.26,60.05,41.18c-.63-1.8-4.44-3.67-8.49-5.19a62.83,62.83,0,0,1,6.31-2.45A15.77,15.77,0,0,1,64.32,33a10.39,10.39,0,0,0-.8,7.29c2,7.43,11.67,34.44,14.18,41s5,11.21,12.69,16c6.14,3.82,29.09,19.28,42.19,20.86A17.69,17.69,0,0,1,131.6,125.77Z"/><path class="cls-4" d="M9.86,84.13c-2.58-3.93-.48-7.44,1.71-9.48s6.34-1.37,7.84.95A7.32,7.32,0,0,1,18,84.54C15.25,86.93,11.43,86.52,9.86,84.13Z"/><path class="cls-4" d="M42.52,61.2c-2.58-3.92-.47-7.43,1.71-9.48s6.34-1.36,7.84,1a7.3,7.3,0,0,1-1.43,8.93C47.91,64,44.09,63.59,42.52,61.2Z"/><path class="cls-4" d="M54.19,94.66c-2.58-3.92-.47-7.43,1.71-9.48s6.34-1.36,7.85,1a7.31,7.31,0,0,1-1.44,8.93C59.58,97.46,55.76,97.05,54.19,94.66Z"/><path class="cls-4" d="M19.72,117.71c-2.58-3.93-.48-7.44,1.71-9.48s6.34-1.37,7.84,1a7.32,7.32,0,0,1-1.43,8.94C25.11,120.51,21.29,120.1,19.72,117.71Z"/><path class="cls-4" d="M69.05,131.76c2.54-2.67,7.85-2.56,9.86-1.28s3.2,5.66,0,7.49a8.87,8.87,0,0,1-9.13,0C67.05,136.42,67.41,133.49,69.05,131.76Z"/><path class="cls-4" d="M79.45,48.89a8.26,8.26,0,0,1,4.84,5.74c.61,2.06.12,3.39-2.12,3.21s-5.2-3.33-5.92-5.27S75.64,47.49,79.45,48.89Z"/><path class="cls-4" d="M109.15,66.35A8.3,8.3,0,0,1,114,72.1c.6,2.05.12,3.38-2.12,3.2S106.67,72,106,70,105.34,65,109.15,66.35Z"/><path class="cls-4" d="M90,81.28A8.27,8.27,0,0,1,94.82,87c.61,2.06.13,3.39-2.11,3.21S87.51,86.9,86.78,85,86.18,79.89,90,81.28Z"/><path class="cls-4" d="M119.69,98.75a8.25,8.25,0,0,1,4.83,5.74c.61,2.06.12,3.39-2.11,3.21s-5.2-3.33-5.93-5.27S115.88,97.35,119.69,98.75Z"/><path class="cls-4" d="M99.57,73.35a8.3,8.3,0,0,1,4.84,5.75c.6,2.05.12,3.38-2.12,3.2S97.09,79,96.36,77,95.76,72,99.57,73.35Z"/></g></g></svg>